HIERARCHY
ROOT Hips
{
	OFFSET 0.00000 0.00000 0.00000
	CHANNELS 6 Xposition Yposition Zposition Yrotation Zrotation Xrotation 
	JOINT Lumbar
	{
		OFFSET 0 0 0
		CHANNELS 3 Zrotation Xrotation Yrotation
		JOINT Neck
		{
			OFFSET 0.00 0.2701 0.00
			CHANNELS 3 Zrotation Xrotation Yrotation
			End Site
			{
				OFFSET 0.00 0.1379 0.00
			}
		}
		JOINT RightShoulder
		{
			OFFSET 0.0119 0.2289 0.1181
			CHANNELS 3 Zrotation Xrotation Yrotation
			JOINT RightElbow
			{
				OFFSET 0.00 -0.1475 0.00
				CHANNELS 2 Zrotation Yrotation
				JOINT RightWrist
				{
					OFFSET 0.00 -0.1605 0.00
					CHANNELS 2 Zrotation Xrotation
					End Site
					{
						OFFSET 0.0040 -0.1068 0.0006
					}
				}
			}
		}
		JOINT LeftShoulder
		{
			OFFSET 0.0119 0.2289 -0.1181
			CHANNELS 3 Zrotation Xrotation Yrotation
			JOINT LeftElbow
			{
				OFFSET 0.00 -0.1475 0.00
				CHANNELS 2 Zrotation Yrotation
				JOINT LeftWrist
				{
					OFFSET 0.00 -0.1605 0.00
					CHANNELS 2 Zrotation Xrotation
					End Site
					{
						OFFSET 0.0040 -0.1068 -0.0006
					}
				}
			}
		}
	}
	JOINT RightHip
	{
		OFFSET 0.0316 -0.0424 0.0458
		CHANNELS 3 Zrotation Xrotation Yrotation
		JOINT RightKnee
		{
			OFFSET 0.00 -0.2438 0.00
			CHANNELS 1 Zrotation
			JOINT RightAnkle
			{
				OFFSET 0.00 -0.2449 0.00
				CHANNELS 3 Zrotation Xrotation Yrotation
				End Site
				{
					OFFSET 0.1237 -0.0542 0.0051
				}
			}
		}
	}
	JOINT LeftHip
	{
		OFFSET 0.0316 -0.0424 -0.0458
		CHANNELS 3 Zrotation Xrotation Yrotation
		JOINT LeftKnee
		{
			OFFSET 0.00 -0.2438 0.00
			CHANNELS 1 Zrotation
			JOINT LeftAnkle
			{
				OFFSET 0.00 -0.2449 0.00
				CHANNELS 3 Zrotation Xrotation Yrotation
				End Site
				{
					OFFSET 0.1237 -0.0542 -0.0051
				}
			}
		}
	}
}
MOTION
Frames: 16
Frame Time: 0.02
0.31844 0.06797 -0.14112 20.42293 -19.10987 -7.53865 42.44531 1.03041 2.24344 -8.36863 12.75749 -2.11994 135.56953 -29.56795 -87.00864 5.78757 61.49148 -7.2056 8.07716 -22.50272 138.27653 -4.33882 8.67561 -74.91525 -21.88672 -0.71276 30.38831 -6.97775 -11.12093 -15.4013 -10.25047 -3.0901 -3.92543 25.91514 6.62564 9.35988 -18.49896 -7.80371 2.88897 3.70781
0.31858 0.06797 -0.13959 18.78986 -19.03577 -7.30224 42.28246 1.08246 2.15835 -8.29639 12.82723 -2.11994 135.35154 -29.38175 -87.29968 5.78712 60.16189 -7.52273 8.17144 -22.55328 138.04679 -4.14427 8.77576 -75.48397 -21.86016 -0.88962 30.8987 -6.86226 -11.39191 -15.73282 -10.20506 -3.17005 -3.96323 25.74268 6.61809 9.69654 -18.40399 -7.89986 3.00973 3.77122
0.31882 0.06806 -0.13793 17.17839 -18.90239 -7.06537 42.06278 1.14007 2.0846 -8.26983 12.91068 -2.11994 135.16468 -29.20937 -87.18767 5.78727 58.75404 -7.85521 8.23594 -22.60378 137.80377 -3.56717 8.90567 -76.18517 -21.84253 -0.97271 31.3182 -6.72536 -11.74958 -16.13467 -10.21913 -3.29743 -4.02789 25.45559 6.64013 10.13742 -18.24762 -8.0184 3.11414 3.82733
0.31904 0.06811 -0.13632 15.57244 -18.79679 -6.82957 41.87084 1.19137 1.99507 -8.23426 12.99026 -2.11994 134.96962 -29.06029 -86.44328 5.78838 57.61849 -8.08624 8.24166 -22.64805 137.56876 -3.0857 9.03332 -76.83758 -21.8401 -1.06975 31.77477 -6.59534 -12.05964 -16.50568 -10.21679 -3.40248 -4.08067 25.21964 6.64775 10.50824 -18.12052 -8.12763 3.22614 3.88698
0.31916 0.06817 -0.13476 13.89634 -18.68639 -6.58893 41.67017 1.25945 1.95462 -8.15511 13.06116 -2.11994 134.74309 -28.7874 -88.89789 5.78465 55.57322 -8.68625 8.53443 -22.71725 137.32492 -2.90641 9.11774 -77.45901 -21.76218 -1.28452 32.25069 -6.47699 -12.40384 -16.87421 -10.17154 -3.51123 -4.13246 24.98689 6.65674 10.96508 -17.98877 -8.23345 3.33888 3.94643
0.31951 0.06824 -0.13305 12.37465 -18.5736 -6.35896 41.47554 1.2935 1.81279 -8.17207 13.15193 -2.11994 134.59645 -28.77114 -84.88658 5.7907 55.35235 -8.54888 8.24551 -22.73748 137.09869 -2.04114 9.29419 -78.15837 -21.83551 -1.23865 32.66327 -6.32925 -12.69946 -17.26087 -10.22686 -3.62285 -4.19212 24.72138 6.67185 11.27331 -17.85105 -8.35166 3.44542 4.00415
0.32044 0.06831 -0.13095 11.26079 -18.45342 -6.15564 41.2979 1.23357 1.39025 -8.48318 13.3065 -2.11994 134.60515 -29.51236 -60.60477 5.82742 60.40159 -6.17018 6.15237 -22.59241 136.89607 0.9176 9.76029 -79.18412 -22.39837 -0.4264 32.93343 -6.10676 -12.81743 -17.71576 -10.57273 -3.73742 -4.27216 24.38284 6.68587 11.12006 -17.71962 -8.49795 3.54151 4.06035
0.3216 0.0684 -0.12869 10.30461 -18.33554 -5.96382 41.13078 1.13894 0.86399 -8.88202 13.47836 -2.11994 134.70266 -30.50288 -30.26513 5.87332 67.23809 -3.08596 3.5103 -22.40306 136.7157 4.50031 10.31043 -80.25784 -23.10044 0.63273 33.14065 -5.85496 -12.88688 -18.17993 -11.01293 -3.85209 -4.35828 24.01682 6.70742 10.81933 -17.58264 -8.65608 3.63125 4.11469
0.32268 0.0685 -0.12648 9.28558 -18.22686 -5.76868 40.96759 1.05912 0.38378 -9.21367 13.63414 -2.11994 134.79928 -31.34465 -4.39608 5.91245 73.10874 -0.46121 1.25766 -22.25415 136.54452 7.60311 10.79331 -81.21296 -23.68907 1.5332 33.37038 -5.61627 -12.99369 -18.6169 -11.39183 -3.96233 -4.43817 23.6709 6.73267 10.60417 -17.44327 -8.80906 3.72193 4.16884
0.32364 0.06854 -0.12438 8.23019 -18.07358 -5.56516 40.76547 0.98323 -0.08991 -9.66073 13.82484 -2.11994 134.73621 -32.33353 28.58984 5.96234 79.63357 2.74053 -1.57535 -22.0214 136.29518 11.54151 11.39784 -82.57533 -24.48572 2.63162 33.62416 -5.37902 -13.04133 -19.15366 -11.84982 -4.09251 -4.53346 23.29067 6.72831 10.31488 -17.32315 -8.96155 3.82023 4.22714
0.32491 0.0687 -0.122 7.28751 -18.01358 -5.38221 40.64791 0.89127 -0.60382 -9.88959 13.94707 -2.11994 135.01906 -33.07879 48.37225 5.99227 85.21211 4.91929 -3.34401 -21.95038 136.20936 13.89107 11.77119 -83.10679 -24.8872 3.37693 33.81219 -5.13044 -13.19654 -19.48348 -12.16569 -4.18084 -4.59799 22.97457 6.7877 10.1428 -17.16159 -9.11794 3.90141 4.27642
0.32695 0.06914 -0.11889 6.61872 -18.21859 -5.24958 40.75914 0.75967 -1.18678 -9.47752 13.87345 -2.11994 136.29875 -33.05776 28.59001 5.9624 87.80977 4.0029 -1.91336 -22.35675 136.6104 11.62737 11.46284 -81.26587 -24.11891 3.07165 33.85037 -4.87223 -13.68614 -19.24281 -12.05707 -4.15084 -4.57401 22.86223 7.01524 10.33701 -16.89459 -9.27923 3.93648 4.3017
0.3293 0.0697 -0.11549 6.05711 -18.51594 -5.13772 40.95549 0.61376 -1.80907 -8.84604 13.73094 -2.11994 137.91152 -32.78876 -4.39579 5.91257 89.37789 2.05005 0.58451 -22.92346 137.16785 7.7564 10.92307 -78.59961 -22.95646 2.40535 33.82184 -4.60121 -14.28061 -18.79288 -11.80339 -4.07892 -4.51907 22.81191 7.30742 10.65215 -16.58511 -9.44455 3.95464 4.31796
0.33154 0.07022 -0.1122 5.4461 -18.76638 -5.01901 41.11496 0.47684 -2.4253 -8.32549 13.62136 -2.11994 139.33012 -32.65484 -30.26463 5.8735 91.37548 0.63696 2.51069 -23.4039 137.62678 4.6655 10.50398 -76.35283 -22.0035 1.91313 33.81374 -4.32649 -14.80977 -18.43599 -11.62192 -4.02783 -4.47958 22.72105 7.57416 10.90765 -16.29017 -9.60974 3.98094 4.33808
0.33369 0.0707 -0.10898 4.84543 -19.03882 -4.89066 41.26839 0.32823 -2.99835 -7.75944 13.50477 -2.11994 140.93257 -32.43597 -60.60411 5.82768 93.60879 -1.0381 4.78163 -23.94024 138.20158 1.38095 10.02221 -73.91684 -20.92689 1.38523 33.84556 -4.09026 -15.41128 -18.08711 -11.41788 -3.9695 -4.43465 22.68256 7.82561 11.17946 -16.01446 -9.76782 4.00529 4.35906
0.33607 0.07127 -0.10556 4.24425 -19.28601 -4.78606 41.45291 0.20103 -3.66545 -7.23646 13.38715 -2.11994 142.22997 -32.33082 -84.88592 5.79099 95.06926 -2.42736 6.59764 -24.39774 138.57282 -1.88245 9.61513 -71.68272 -20.01283 0.84532 33.77871 -3.77207 -15.88828 -17.67305 -11.22435 -3.91596 -4.39342 22.54856 8.12282 11.44585 -15.6895 -9.94195 4.02953 4.37623
